<svg xmlns="http://www.w3.org/2000/svg" version="1.1" xmlns:xlink="http://www.w3.org/1999/xlink" xmlns:svgjs="http://svgjs.dev/svgjs" width="277" height="255"><svg xmlns="http://www.w3.org/2000/svg" version="1.1" viewBox="1.7629669904708862 1.5199851989746094 274.0196533203125 252.0900115966797" width="277.00" height="255.00">
<g stroke-width="2.00" fill="none" stroke-linecap="butt">
<path stroke="#356694" d="
  M 197.01 1.88
  Q 194.18 3.40 188.18 5.92
  Q 173.01 12.31 159.03 26.29
  Q 152.04 33.28 145.28 40.95"></path>
<path stroke="#356694" d="
  M 113.90 41.22
  Q 113.17 41.91 111.36 42.00
  Q 109.71 42.09 108.79 42.45
  C 98.61 46.52 96.46 55.90 100.07 65.98
  Q 100.17 66.26 100.15 66.51
  Q 100.13 66.79 100.06 67.04"></path>
<path stroke="#356694" d="
  M 98.55 68.89
  Q 90.63 75.08 80.72 78.47
  C 75.74 80.17 70.37 82.47 65.82 83.85
  Q 48.19 89.20 33.24 94.74
  Q 14.15 101.82 5.86 120.35
  Q 4.91 122.49 2.60 129.19"></path>
<path stroke="#3f82b9" d="
  M 2.60 129.19
  Q 2.46 129.56 2.12 129.71"></path>
<path stroke="#2e3c6d" d="
  M 97.97 108.58
  C 95.97 108.03 94.18 107.16 92.18 106.86
  Q 77.54 104.65 64.87 106.15
  Q 51.40 107.74 45.23 108.43
  Q 35.72 109.50 28.12 111.62
  C 18.99 114.16 6.67 121.82 3.88 131.58
  Q 3.80 131.87 3.54 132.02
  L 3.10 132.28
  A 0.41 0.40 -13.4 0 1 2.49 131.91
  L 2.60 129.19"></path>
<path stroke="#2e3c6d" d="
  M 182.81 205.14
  Q 180.44 191.52 171.60 180.88
  C 164.59 172.44 159.95 167.87 157.23 157.55
  Q 155.07 149.35 153.88 145.60
  Q 148.63 129.02 131.81 123.29"></path>
<path stroke="#356694" d="
  M 131.07 101.79
  Q 132.10 94.11 130.97 86.64
  Q 130.22 81.66 125.49 80.07
  Q 122.67 79.13 119.78 78.40
  Q 108.96 75.70 100.85 67.86"></path>
<path stroke="#2e3c6d" d="
  M 55.37 164.84
  Q 58.31 171.21 64.02 175.23
  Q 74.26 182.43 86.72 190.01
  C 95.03 195.07 93.06 204.98 89.96 212.45
  Q 88.07 217.02 82.80 228.18
  Q 81.40 231.14 78.09 236.88
  Q 75.75 240.94 73.38 245.58
  Q 73.25 245.83 73.49 245.97
  L 73.71 246.09
  Q 73.75 246.11 73.77 246.06
  C 75.62 242.62 77.35 239.39 79.60 236.09
  C 95.31 213.04 114.84 187.68 126.36 160.09
  Q 130.49 150.20 131.07 140.29"></path>
<path stroke="#2e3c6d" d="
  M 67.21 253.61
  L 66.85 252.45"></path>
<path stroke="#2e4874" d="
  M 275.63 68.03
  Q 275.24 69.79 275.65 71.80"></path>
<path stroke="#2e4874" d="
  M 275.72 72.27
  C 274.88 74.59 274.43 77.38 273.83 79.29
  C 267.34 99.90 245.63 118.12 223.25 117.20
  Q 214.34 116.83 206.93 110.99"></path>
<path stroke="#2e4874" d="
  M 168.16 63.38
  Q 166.72 56.26 166.77 51.24
  C 166.91 38.11 171.85 24.64 180.87 14.88
  Q 188.34 6.80 200.75 1.94"></path>
</g>
<rect width="250" height="180" x="10" y="10" rx="20" ry="20" fill="white"></rect>
<path fill="#46ace0" d="
  M 197.01 1.88
  Q 194.18 3.40 188.18 5.92
  Q 173.01 12.31 159.03 26.29
  Q 152.04 33.28 145.28 40.95
  L 113.90 41.22
  Q 113.17 41.91 111.36 42.00
  Q 109.71 42.09 108.79 42.45
  C 98.61 46.52 96.46 55.90 100.07 65.98
  Q 100.17 66.26 100.15 66.51
  Q 100.13 66.79 100.06 67.04
  Q 97.84 67.39 98.55 68.89
  Q 90.63 75.08 80.72 78.47
  C 75.74 80.17 70.37 82.47 65.82 83.85
  Q 48.19 89.20 33.24 94.74
  Q 14.15 101.82 5.86 120.35
  Q 4.91 122.49 2.60 129.19
  Q 2.46 129.56 2.12 129.71
  Q 2.08 125.61 2.06 121.50
  Q 1.87 75.53 1.84 48.95
  C 1.81 21.56 21.84 1.50 49.25 1.52
  Q 139.48 1.60 187.25 1.66
  Q 191.86 1.66 197.01 1.88
  Z"></path>
<path fill="#37709f" d="
  M 275.63 68.03
  Q 275.24 69.79 275.65 71.80
  Q 275.58 72.31 275.72 72.27
  C 274.88 74.59 274.43 77.38 273.83 79.29
  C 267.34 99.90 245.63 118.12 223.25 117.20
  Q 214.34 116.83 206.93 110.99
  Q 214.72 98.30 222.86 85.80
  C 227.20 79.14 231.45 71.97 235.83 65.10
  Q 239.26 59.72 237.84 53.68
  C 234.54 39.64 215.40 35.97 206.02 46.23
  Q 204.36 48.06 199.90 55.55
  Q 191.25 70.11 182.41 84.37
  A 0.87 0.87 0.0 0 1 180.92 84.37
  L 168.16 63.38
  Q 166.72 56.26 166.77 51.24
  C 166.91 38.11 171.85 24.64 180.87 14.88
  Q 188.34 6.80 200.75 1.94
  Q 212.05 1.43 224.38 1.57
  Q 237.39 1.71 243.87 3.68
  C 259.34 8.40 270.93 20.67 274.52 36.70
  Q 275.59 41.49 275.64 50.38
  Q 275.70 59.21 275.63 68.03
  Z"></path>
<path fill="#242048" d="
  M 200.75 1.94
  Q 188.34 6.80 180.87 14.88
  C 171.85 24.64 166.91 38.11 166.77 51.24
  Q 166.72 56.26 168.16 63.38
  Q 163.75 55.68 159.59 48.68
  Q 154.77 40.56 145.28 40.95
  Q 152.04 33.28 159.03 26.29
  Q 173.01 12.31 188.18 5.92
  Q 194.18 3.40 197.01 1.88
  Q 197.81 1.33 200.75 1.94
  Z"></path>
<path fill="#242048" d="
  M 113.90 41.22
  Q 118.50 45.49 119.47 48.08
  C 121.48 53.45 123.38 58.30 126.58 63.18
  Q 144.60 90.70 162.30 118.62
  C 163.94 121.22 164.77 122.46 164.81 125.69
  Q 165.13 151.84 164.97 155.76
  C 164.52 166.79 173.31 175.08 184.33 173.57
  Q 194.81 172.13 198.37 163.49
  Q 199.76 160.12 199.68 152.81
  Q 199.57 141.00 199.72 126.25
  Q 199.75 122.48 201.08 120.07
  Q 203.69 115.33 206.93 110.99
  Q 214.34 116.83 223.25 117.20
  C 245.63 118.12 267.34 99.90 273.83 79.29
  C 274.43 77.38 274.88 74.59 275.72 72.27
  Q 275.84 100.95 275.73 160.00
  C 275.71 172.27 271.45 183.50 262.78 192.19
  Q 249.99 205.00 230.24 205.06
  Q 206.41 205.12 182.81 205.14
  Q 180.44 191.52 171.60 180.88
  C 164.59 172.44 159.95 167.87 157.23 157.55
  Q 155.07 149.35 153.88 145.60
  Q 148.63 129.02 131.81 123.29
  Q 132.24 112.31 131.07 101.79
  Q 132.10 94.11 130.97 86.64
  Q 130.22 81.66 125.49 80.07
  Q 122.67 79.13 119.78 78.40
  Q 108.96 75.70 100.85 67.86
  Q 100.53 67.39 100.06 67.04
  Q 100.13 66.79 100.15 66.51
  Q 100.17 66.26 100.07 65.98
  C 96.46 55.90 98.61 46.52 108.79 42.45
  Q 109.71 42.09 111.36 42.00
  Q 113.17 41.91 113.90 41.22
  Z"></path>
<path fill="#46ace0" d="
  M 131.07 101.79
  Q 127.20 96.03 123.47 92.52
  C 117.39 86.82 108.79 81.97 103.93 74.82
  Q 102.37 72.52 100.85 67.86
  Q 108.96 75.70 119.78 78.40
  Q 122.67 79.13 125.49 80.07
  Q 130.22 81.66 130.97 86.64
  Q 132.10 94.11 131.07 101.79
  Z"></path>
<path fill="#242048" d="
  M 275.63 68.03
  L 275.65 71.80
  Q 275.24 69.79 275.63 68.03
  Z"></path>
<path fill="#242048" d="
  M 98.55 68.89
  Q 98.47 70.22 98.26 71.96
  Q 98.06 73.62 98.07 75.04
  Q 98.20 91.77 97.97 108.58
  C 95.97 108.03 94.18 107.16 92.18 106.86
  Q 77.54 104.65 64.87 106.15
  Q 51.40 107.74 45.23 108.43
  Q 35.72 109.50 28.12 111.62
  C 18.99 114.16 6.67 121.82 3.88 131.58
  Q 3.80 131.87 3.54 132.02
  L 3.10 132.28
  A 0.41 0.40 -13.4 0 1 2.49 131.91
  L 2.60 129.19
  Q 4.91 122.49 5.86 120.35
  Q 14.15 101.82 33.24 94.74
  Q 48.19 89.20 65.82 83.85
  C 70.37 82.47 75.74 80.17 80.72 78.47
  Q 90.63 75.08 98.55 68.89
  Z"></path>
<path fill="#385792" d="
  M 97.97 108.58
  Q 98.07 124.88 97.81 129.50
  C 97.05 142.99 81.01 145.86 75.30 133.68
  C 73.66 130.17 72.58 127.56 70.71 125.37
  C 61.82 115.03 44.16 119.31 40.76 132.47
  Q 38.73 140.32 42.33 147.68
  Q 47.24 157.73 55.37 164.84
  Q 58.31 171.21 64.02 175.23
  Q 74.26 182.43 86.72 190.01
  C 95.03 195.07 93.06 204.98 89.96 212.45
  Q 88.07 217.02 82.80 228.18
  Q 81.40 231.14 78.09 236.88
  Q 75.75 240.94 73.38 245.58
  Q 73.25 245.83 73.49 245.97
  L 73.71 246.09
  Q 73.75 246.11 73.77 246.06
  C 75.62 242.62 77.35 239.39 79.60 236.09
  C 95.31 213.04 114.84 187.68 126.36 160.09
  Q 130.49 150.20 131.07 140.29
  L 131.81 123.29
  Q 148.63 129.02 153.88 145.60
  Q 155.07 149.35 157.23 157.55
  C 159.95 167.87 164.59 172.44 171.60 180.88
  Q 180.44 191.52 182.81 205.14
  Q 143.89 204.88 130.33 205.10
  C 129.31 205.12 127.35 206.11 126.37 206.90
  Q 97.08 230.49 67.21 253.61
  L 66.85 252.45
  C 66.50 242.91 66.71 233.41 66.59 223.85
  Q 66.48 215.93 65.03 212.88
  C 61.76 205.98 54.01 204.54 46.61 204.92
  Q 41.29 205.19 36.24 203.88
  C 15.12 198.38 2.36 181.68 1.89 160.25
  Q 1.55 144.96 2.12 129.71
  Q 2.46 129.56 2.60 129.19
  L 2.49 131.91
  A 0.41 0.40 -13.4 0 0 3.10 132.28
  L 3.54 132.02
  Q 3.80 131.87 3.88 131.58
  C 6.67 121.82 18.99 114.16 28.12 111.62
  Q 35.72 109.50 45.23 108.43
  Q 51.40 107.74 64.87 106.15
  Q 77.54 104.65 92.18 106.86
  C 94.18 107.16 95.97 108.03 97.97 108.58
  Z"></path>
<path fill="#242048" d="
  M 131.07 140.29
  Q 130.49 150.20 126.36 160.09
  C 114.84 187.68 95.31 213.04 79.60 236.09
  C 77.35 239.39 75.62 242.62 73.77 246.06
  Q 73.75 246.11 73.71 246.09
  L 73.49 245.97
  Q 73.25 245.83 73.38 245.58
  Q 75.75 240.94 78.09 236.88
  Q 81.40 231.14 82.80 228.18
  Q 88.07 217.02 89.96 212.45
  C 93.06 204.98 95.03 195.07 86.72 190.01
  Q 74.26 182.43 64.02 175.23
  Q 58.31 171.21 55.37 164.84
  Q 64.42 171.40 72.68 172.87
  C 87.03 175.40 103.42 174.16 115.23 164.79
  Q 127.40 155.14 131.07 140.29
  Z"></path>
<path fill="#242048" d="
  M 67.21 253.61
  Q 66.70 252.72 66.85 252.45
  L 67.21 253.61
  Z"></path>
</svg><style>@media (prefers-color-scheme: light) { :root { filter: none; } }
@media (prefers-color-scheme: dark) { :root { filter: none; } }
</style></svg>